<?xml version="1.0" encoding="UTF-8"?><svg id="Layer_2" xmlns="http://www.w3.org/2000/svg" viewBox="0 0 99.91 32.38"><defs><style>.cls-1{fill:#62b446;}.cls-2{fill:#383d39;}</style></defs><g id="Layer_1-2"><g><path class="cls-2" d="M48.25,11.97c-.72-.74-1.59-1.31-2.6-1.71-1.01-.4-2.14-.6-3.38-.6s-2.33,.2-3.35,.59c-1.01,.4-1.87,.96-2.58,1.69-.71,.73-1.26,1.61-1.64,2.64-.06,.17-.11,.34-.16,.51-.05-.16-.09-.32-.15-.48-.38-1.02-.92-1.9-1.64-2.64-.72-.74-1.59-1.31-2.6-1.71-1.01-.4-2.14-.6-3.38-.6s-2.33,.2-3.35,.59c-1.01,.4-1.87,.96-2.58,1.69-.71,.73-1.26,1.61-1.64,2.64-.21,.57-.36,1.17-.45,1.81-.28,.4-.53,.89-.72,1.49-.52,1.42-1.29,2.5-2.32,3.24-1.02,.73-2.28,1.1-3.76,1.1-1.37,0-2.56-.32-3.57-.97-1.02-.65-1.8-1.63-2.36-2.94s-.83-2.96-.83-4.94c0-2.96,.63-5.25,1.88-6.85,1.26-1.61,2.94-2.41,5.06-2.41,1.33,0,2.45,.31,3.36,.94,.91,.62,1.7,1.57,2.37,2.83,.4,.76,.77,1.3,1.1,1.61,.33,.31,.82,.47,1.48,.47,.59,0,1.09-.23,1.51-.68,.42-.45,.62-.97,.62-1.56,0-1.08-.43-2.22-1.28-3.43-.86-1.21-2.09-2.22-3.7-3.05-1.61-.82-3.44-1.23-5.5-1.23-1.69,0-3.28,.3-4.77,.9-1.49,.6-2.79,1.48-3.9,2.63-1.11,1.15-1.96,2.54-2.56,4.16-.6,1.62-.89,3.45-.89,5.5,0,1.26,.12,2.45,.36,3.57,.24,1.12,.59,2.18,1.07,3.17,.47,.99,1.05,1.88,1.72,2.68,.75,.88,1.58,1.59,2.47,2.13,.9,.54,1.89,.93,2.99,1.19,1.1,.25,2.32,.38,3.66,.38,1.77,0,3.32-.28,4.65-.85s2.42-1.3,3.28-2.21c.01-.01,.02-.02,.03-.04,.2,.27,.41,.54,.65,.78,.73,.75,1.58,1.32,2.57,1.72,.99,.4,2.1,.6,3.35,.6s2.38-.2,3.38-.59c1-.4,1.86-.96,2.58-1.7,.72-.74,1.27-1.62,1.65-2.66,.06-.16,.11-.33,.16-.5,.05,.16,.1,.33,.15,.49,.38,1.02,.92,1.9,1.65,2.64s1.58,1.32,2.57,1.72c.99,.4,2.1,.6,3.35,.6s2.38-.2,3.38-.59c1-.4,1.86-.96,2.58-1.7,.72-.74,1.27-1.62,1.65-2.66,.38-1.03,.57-2.15,.57-3.38s-.19-2.35-.56-3.38-.92-1.9-1.64-2.64Zm-18.49,9.89c-.73,.94-1.72,1.4-2.96,1.4-.82,0-1.53-.21-2.14-.64-.6-.42-1.07-1.04-1.4-1.84-.32-.8-.49-1.73-.49-2.81s.17-2.02,.5-2.83,.8-1.42,1.41-1.84c.61-.41,1.31-.62,2.12-.62,1.24,0,2.23,.47,2.96,1.4,.73,.93,1.1,2.23,1.1,3.9s-.37,2.94-1.1,3.88Zm15.48,0c-.73,.94-1.72,1.4-2.96,1.4-.82,0-1.53-.21-2.14-.64-.6-.42-1.07-1.04-1.4-1.84-.32-.8-.49-1.73-.49-2.81s.17-2.02,.5-2.83,.8-1.42,1.41-1.84c.61-.41,1.31-.62,2.12-.62,1.24,0,2.23,.47,2.96,1.4,.73,.93,1.1,2.23,1.1,3.9s-.37,2.94-1.1,3.88Z"/><path class="cls-2" d="M64.12,22.36l-4.2-6.6,2.17-2c1.11-1,1.67-1.8,1.67-2.4,0-.49-.17-.9-.51-1.22-.34-.32-.76-.49-1.27-.49-.43,0-.79,.11-1.09,.33-.3,.22-.74,.63-1.31,1.23l-4.6,4.83V6.12c0-.84-.19-1.48-.56-1.91-.37-.43-.87-.65-1.5-.65s-1.15,.24-1.5,.71-.52,1.17-.52,2.08V23.82c0,.82,.18,1.44,.54,1.86s.85,.63,1.48,.63c.54,0,1.02-.21,1.43-.64,.42-.42,.62-1.03,.62-1.82v-3.25l2.22-2.1,3.61,5.94c.46,.71,.83,1.2,1.1,1.47s.65,.4,1.15,.4c.58,0,1.05-.19,1.4-.56s.53-.89,.53-1.54c0-.23-.07-.47-.2-.73-.13-.25-.36-.63-.67-1.12Z"/><path class="cls-1" d="M80.57,3.57c-.67,0-1.21,.22-1.6,.67-.4,.44-.6,1.12-.6,2.03v10.91c0,1.88-.36,3.28-1.08,4.21-.72,.93-1.95,1.39-3.69,1.39-1.26,0-2.24-.23-2.94-.68-.7-.45-1.19-1.09-1.46-1.92-.27-.82-.41-1.85-.41-3.08V6.27c0-.9-.2-1.58-.61-2.02-.4-.45-.95-.68-1.64-.68s-1.19,.23-1.6,.68c-.41,.45-.61,1.12-.61,2.02v10.58c0,1.66,.18,3.09,.54,4.28,.36,1.2,.92,2.18,1.69,2.94,.77,.77,1.76,1.33,2.98,1.7,1.22,.36,2.67,.55,4.37,.55,1.42,0,2.66-.17,3.72-.51s1.99-.88,2.79-1.62c.93-.87,1.56-1.88,1.9-3.03,.33-1.15,.5-2.58,.5-4.3V6.27c0-.91-.21-1.59-.62-2.03-.42-.45-.96-.67-1.63-.67Z"/><path class="cls-1" d="M98.99,13.51c-.61-1.25-1.45-2.2-2.51-2.85-1.06-.65-2.22-.98-3.48-.98-1.05,0-1.99,.22-2.82,.67-.83,.45-1.63,1.14-2.4,2.09v-.5c0-.74-.18-1.31-.55-1.7-.37-.4-.84-.59-1.42-.59s-1.06,.19-1.4,.58c-.34,.38-.51,.97-.51,1.75V29.65c0,.89,.12,1.57,.38,2.03s.76,.7,1.53,.7c1.31,0,1.96-.9,1.96-2.7v-6.15c.72,.91,1.48,1.6,2.27,2.07,.79,.47,1.78,.71,2.95,.71,.97,0,1.88-.19,2.72-.58s1.58-.93,2.2-1.65c.62-.71,1.11-1.6,1.46-2.65s.53-2.21,.53-3.47c0-1.71-.31-3.19-.92-4.44Zm-3.71,7.26c-.35,.79-.81,1.38-1.4,1.78s-1.21,.59-1.89,.59c-1.14,0-2.09-.45-2.86-1.36-.77-.9-1.16-2.17-1.16-3.8,0-1.73,.39-3.04,1.16-3.93s1.73-1.33,2.86-1.33c.71,0,1.36,.21,1.94,.62,.58,.42,1.04,1.01,1.37,1.78,.33,.78,.5,1.7,.5,2.78s-.17,2.08-.52,2.86Z"/></g></g></svg>